<svg width="155" height="20" viewBox="0 0 155 20" fill="none" xmlns="http://www.w3.org/2000/svg">
<g clip-path="url(#clip0)">
<path d="M45.25 9.56H40.25V6.56H46.25V2.56H36.25V19.56H40.25V12.56H45.25V9.56Z" fill="white"/>
<path d="M52 2.56L45.65 19.56H50.21L51.35 16.56H57.3L58.37 19.56H63L56.78 2.56H52V2.56ZM52.53 13.56L54.3 7.56L56.05 13.56H52.57H52.53Z" fill="white"/>
<path d="M68.25 2.56H64.25V19.56H74.25V15.56H68.25V2.56Z" fill="white"/>
<path d="M77.13 5.17001C75.5731 6.77953 74.7019 8.93068 74.7 11.17C74.6634 12.34 74.8814 13.504 75.3389 14.5814C75.7965 15.6588 76.4827 16.6239 77.35 17.41C79.0217 18.9642 81.2174 19.8318 83.5 19.84C84.7849 19.8292 86.0553 19.5677 87.24 19.07V14C86.7861 14.5313 86.2259 14.9615 85.5955 15.2629C84.9651 15.5643 84.2785 15.7303 83.58 15.75C82.9853 15.7759 82.3917 15.6772 81.8374 15.4602C81.2831 15.2432 80.7803 14.9127 80.3613 14.4899C79.9423 14.0671 79.6163 13.5613 79.4042 13.0051C79.1922 12.4489 79.0988 11.8545 79.13 11.26C79.0942 10.667 79.1811 10.0729 79.3853 9.515C79.5894 8.95707 79.9065 8.44726 80.3166 8.01742C80.7268 7.58758 81.2212 7.24695 81.7689 7.01683C82.3166 6.78672 82.9059 6.67205 83.5 6.68001C84.2187 6.68278 84.9274 6.84792 85.5733 7.16307C86.2192 7.47822 86.7856 7.93525 87.23 8.50001V3.33001C85.5626 2.5561 83.6965 2.31749 81.888 2.64696C80.0795 2.97643 78.4174 3.85781 77.13 5.17001V5.17001Z" fill="white"/>
<path d="M98.26 2.39001C93.51 2.39001 89.13 5.89001 89.13 10.89C89.13 13.3128 90.0924 15.6363 91.8056 17.3494C93.5187 19.0626 95.8423 20.025 98.265 20.025C100.688 20.025 103.011 19.0626 104.724 17.3494C106.438 15.6363 107.4 13.3128 107.4 10.89C107.39 5.89001 103 2.39001 98.26 2.39001ZM98.26 15.84C97.6267 15.8325 97.0014 15.698 96.4211 15.4443C95.8408 15.1906 95.3174 14.823 94.8818 14.3632C94.4463 13.9034 94.1075 13.3608 93.8856 12.7676C93.6637 12.1745 93.5632 11.5428 93.59 10.91C93.6841 9.73738 94.2164 8.6432 95.0809 7.84533C95.9454 7.04746 97.0786 6.60441 98.255 6.60441C99.4314 6.60441 100.565 7.04746 101.429 7.84533C102.294 8.6432 102.826 9.73738 102.92 10.91C102.947 11.5419 102.847 12.1728 102.625 12.7653C102.404 13.3579 102.066 13.9 101.632 14.3596C101.197 14.8193 100.675 15.1871 100.096 15.4414C99.5167 15.6957 98.8924 15.8312 98.26 15.84V15.84Z" fill="white"/>
<path d="M121.25 12.56H121.51L113.65 2.56H109.25V19.56H113.25V9.56H113.69L121.55 19.56H125.25V2.56H121.25V12.56Z" fill="white"/>
<path d="M135.25 19.56H134.25V2.56H135.25V19.56Z" fill="white"/>
<path d="M155 11.15C154.924 13.3762 153.986 15.4858 152.385 17.0338C150.783 18.5817 148.642 19.447 146.415 19.447C144.188 19.447 142.047 18.5817 140.445 17.0338C138.844 15.4858 137.906 13.3762 137.83 11.15C137.906 8.92384 138.844 6.81423 140.445 5.26627C142.047 3.71831 144.188 2.85306 146.415 2.85306C148.642 2.85306 150.783 3.71831 152.385 5.26627C153.986 6.81423 154.924 8.92384 155 11.15ZM153.56 11.15C153.56 9.25372 152.807 7.43509 151.466 6.0942C150.125 4.75331 148.306 4.00001 146.41 4.00001C144.514 4.00001 142.695 4.75331 141.354 6.0942C140.013 7.43509 139.26 9.25372 139.26 11.15C139.26 13.0463 140.013 14.8649 141.354 16.2058C142.695 17.5467 144.514 18.3 146.41 18.3C148.306 18.3 150.125 17.5467 151.466 16.2058C152.807 14.8649 153.56 13.0463 153.56 11.15V11.15Z" fill="white"/>
<path d="M131.11 18.33C131.11 18.6377 130.988 18.9327 130.77 19.1503C130.553 19.3678 130.258 19.49 129.95 19.49C129.642 19.49 129.347 19.3678 129.13 19.1503C128.912 18.9327 128.79 18.6377 128.79 18.33C128.79 18.0224 128.912 17.7273 129.13 17.5098C129.347 17.2922 129.642 17.17 129.95 17.17C130.258 17.17 130.553 17.2922 130.77 17.5098C130.988 17.7273 131.11 18.0224 131.11 18.33Z" fill="white"/>
<path d="M31.41 19.35C28.1727 18.5295 25.3353 16.5788 23.41 13.85C22.95 14.07 21.34 15.05 16.75 14.75C15.0965 14.5862 13.4934 14.0887 12.0376 13.2878C10.5818 12.4868 9.30348 11.399 8.28 10.09C12.7231 10.5172 17.1969 10.5172 21.64 10.09C21.4901 9.55372 21.3699 9.00955 21.28 8.46C19.57 8.46 12.01 8.56 7.47 7.27C2.38 5.86 0 0 0 0C8.8652 0.68116 17.6834 1.8765 26.41 3.58C26.7759 3.64254 27.1087 3.83038 27.3513 4.11134C27.594 4.39229 27.7314 4.74887 27.74 5.12C27.74 12.12 29.91 16.12 31.96 18.65C32.29 19.09 32.16 19.54 31.41 19.35Z" fill="white"/>
</g>
<defs>
<clipPath id="clip0">
<rect width="155" height="20" fill="white"/>
</clipPath>
</defs>
</svg>
